<svg xmlns="http://www.w3.org/2000/svg" viewBox="0 0 497.36 497.36">
  <path
    fill="#e5e1e5"
    d="M248.18 59.04c68.2 0 123.48 55.29 123.48 123.48 0 68.2-55.28 123.49-123.48 123.49S124.7 250.72 124.7 182.52c0-68.19 55.28-123.48 123.48-123.48zm68.86 123.48c0-37.96-30.89-68.85-68.86-68.85s-68.86 30.89-68.86 68.85c0 37.97 30.89 68.86 68.86 68.86s68.86-30.89 68.86-68.86z" />
  <path
    fill="#efedef"
    d="M430.7 167.52v30.01c0 3.46-2.8 6.26-6.26 6.26h-20.66c-3.72 27.46-14.53 52.67-30.54 73.72l14.61 14.61a6.247 6.247 0 0 1 0 8.85l-21.22 21.23c-2.45 2.44-6.41 2.44-8.85 0l-14.62-14.62c-21.04 16.01-46.25 26.83-73.71 30.54v20.66c0 3.46-2.81 6.26-6.26 6.26h-30.02c-3.45 0-6.26-2.8-6.26-6.26v-20.66c-27.46-3.71-52.67-14.53-73.71-30.54l-14.62 14.62c-2.44 2.44-6.4 2.44-8.85 0l-21.22-21.23a6.247 6.247 0 0 1 0-8.85l14.61-14.61c-16.01-21.05-26.82-46.26-30.54-73.72H71.92c-3.46 0-6.26-2.8-6.26-6.26v-30.01c0-3.46 2.8-6.26 6.26-6.26h20.66c3.72-27.47 14.53-52.67 30.54-73.72l-14.61-14.61a6.247 6.247 0 0 1 0-8.85l21.22-21.23c2.45-2.44 6.41-2.44 8.85 0l14.62 14.62c21.04-16.01 46.25-26.83 73.71-30.55V6.26A6.27 6.27 0 0 1 233.17 0h30.02a6.27 6.27 0 0 1 6.26 6.26v20.66c27.46 3.72 52.67 14.54 73.71 30.55l14.62-14.62c2.44-2.44 6.4-2.44 8.85 0l21.22 21.23a6.247 6.247 0 0 1 0 8.85l-14.61 14.61c16.01 21.05 26.82 46.25 30.54 73.72h20.66c3.46 0 6.26 2.8 6.26 6.26zm-83.66 15c0-54.59-44.26-98.85-98.86-98.85s-98.86 44.26-98.86 98.85c0 54.6 44.26 98.86 98.86 98.86s98.86-44.26 98.86-98.86z" />
  <path
    fill="#efedef"
    d="M496.26 372.87v28.64c0 2.82-2.28 5.09-5.09 5.09h-17.6a89.176 89.176 0 0 1-11.9 28.72l12.45 12.45a5.076 5.076 0 0 1 0 7.19l-20.26 20.26a5.088 5.088 0 0 1-7.2 0l-12.45-12.45a89.03 89.03 0 0 1-28.71 11.9v17.6c0 2.81-2.28 5.09-5.09 5.09h-28.65c-2.81 0-5.08-2.28-5.08-5.09v-17.6a89.176 89.176 0 0 1-28.72-11.9l-12.45 12.45a5.076 5.076 0 0 1-7.19 0l-20.26-20.26a5.076 5.076 0 0 1 0-7.19l12.45-12.45a89.176 89.176 0 0 1-11.9-28.72h-17.6c-2.81 0-5.09-2.27-5.09-5.09v-28.64c0-2.81 2.28-5.09 5.09-5.09h17.6a89.176 89.176 0 0 1 11.9-28.72l-12.45-12.45a5.076 5.076 0 0 1 0-7.19l20.26-20.26a5.076 5.076 0 0 1 7.19 0l12.45 12.45a89.176 89.176 0 0 1 28.72-11.9v-17.6c0-2.81 2.27-5.09 5.08-5.09h28.65c2.81 0 5.09 2.28 5.09 5.09v17.6a89.03 89.03 0 0 1 28.71 11.9l12.45-12.45a5.088 5.088 0 0 1 7.2 0l20.26 20.26a5.076 5.076 0 0 1 0 7.19l-12.45 12.46a89.03 89.03 0 0 1 11.9 28.71h17.6c2.81 0 5.09 2.28 5.09 5.09zm-57.01 14.32c0-29.36-23.8-53.16-53.16-53.16s-53.17 23.8-53.17 53.16 23.81 53.16 53.17 53.16 53.16-23.8 53.16-53.16z" />
  <path
    fill="#e5e1e5"
    d="M133.838 175.255c0-60.873 31.214-114.462 78.488-145.651C190.525 34.7 170.452 44.342 153.2 57.47l-14.62-14.62c-2.44-2.44-6.4-2.44-8.85 0l-21.22 21.23a6.247 6.247 0 0 0 0 8.85l14.61 14.61c-16.01 21.05-26.82 46.25-30.54 73.72H71.92c-3.46 0-6.26 2.8-6.26 6.26v30.01c0 3.46 2.8 6.26 6.26 6.26h20.66c3.72 27.46 14.53 52.67 30.54 73.72l-14.61 14.61a6.247 6.247 0 0 0 0 8.85l21.22 21.23c2.45 2.44 6.41 2.44 8.85 0l14.62-14.62c21.04 16.01 46.25 26.83 73.71 30.54v20.66c0 3.46 2.81 6.26 6.26 6.26h30.02c3.45 0 6.26-2.8 6.26-6.26v-13.488c-77.646-17.623-135.612-87.058-135.612-170.037z" />
  <path
    fill="#efedef"
    d="M221.44 372.87v28.64c0 2.82-2.28 5.09-5.09 5.09h-17.6a89.176 89.176 0 0 1-11.9 28.72l12.45 12.45a5.076 5.076 0 0 1 0 7.19l-20.26 20.26a5.076 5.076 0 0 1-7.19 0l-12.45-12.45a89.176 89.176 0 0 1-28.72 11.9v17.6c0 2.81-2.27 5.09-5.08 5.09H96.95c-2.81 0-5.09-2.28-5.09-5.09v-17.6a89.03 89.03 0 0 1-28.71-11.9L50.7 475.22a5.088 5.088 0 0 1-7.2 0l-20.26-20.26a5.076 5.076 0 0 1 0-7.19l12.45-12.45a89.176 89.176 0 0 1-11.9-28.72H6.19c-2.81 0-5.09-2.27-5.09-5.09v-28.64c0-2.81 2.28-5.09 5.09-5.09h17.6a89.03 89.03 0 0 1 11.9-28.71l-12.45-12.46a5.076 5.076 0 0 1 0-7.19l20.26-20.26a5.088 5.088 0 0 1 7.2 0l12.45 12.45a89.03 89.03 0 0 1 28.71-11.9v-17.6c0-2.81 2.28-5.09 5.09-5.09h28.65c2.81 0 5.08 2.28 5.08 5.09v17.6a89.176 89.176 0 0 1 28.72 11.9l12.45-12.45a5.076 5.076 0 0 1 7.19 0l20.26 20.26a5.076 5.076 0 0 1 0 7.19l-12.45 12.45a89.176 89.176 0 0 1 11.9 28.72h17.6c2.81 0 5.09 2.28 5.09 5.09zm-57 14.32c0-29.36-23.81-53.16-53.17-53.16s-53.16 23.8-53.16 53.16 23.8 53.16 53.16 53.16 53.17-23.8 53.17-53.16z" />
  <path
    fill="#e5e1e5"
    d="M45.666 382.861c0-29.874 11.245-57.146 29.715-77.782a89.282 89.282 0 0 0-12.231 6.531L50.7 299.16a5.088 5.088 0 0 0-7.2 0l-20.26 20.26a5.076 5.076 0 0 0 0 7.19l12.45 12.46a89.03 89.03 0 0 0-11.9 28.71H6.19c-2.81 0-5.09 2.28-5.09 5.09v28.64c0 2.82 2.28 5.09 5.09 5.09h17.6a89.176 89.176 0 0 0 11.9 28.72l-12.45 12.45a5.076 5.076 0 0 0 0 7.19l20.26 20.26a5.088 5.088 0 0 0 7.2 0l12.45-12.45a89.235 89.235 0 0 0 26.572 11.4c-26.829-21.37-44.056-54.343-44.056-91.309zM320.12 385.241c0-33.071 14.522-62.745 37.531-83.01a89.285 89.285 0 0 0-19.691 9.379l-12.45-12.45a5.076 5.076 0 0 0-7.19 0l-20.26 20.26a5.076 5.076 0 0 0 0 7.19l12.45 12.45a89.176 89.176 0 0 0-11.9 28.72h-17.6c-2.81 0-5.09 2.28-5.09 5.09v28.64c0 2.82 2.28 5.09 5.09 5.09h17.6a89.176 89.176 0 0 0 11.9 28.72l-12.45 12.45a5.076 5.076 0 0 0 0 7.19l20.26 20.26a5.076 5.076 0 0 0 7.19 0l12.45-12.45a89.338 89.338 0 0 0 27.201 11.55c-27.306-20.135-45.041-52.549-45.041-89.079z" />
</svg>
